<?xml version="1.0" encoding="UTF-8" standalone="no"?>
<!-- Created with Inkscape (http://www.inkscape.org/) -->
<svg id="svg2" xmlns:rdf="http://www.w3.org/1999/02/22-rdf-syntax-ns#" xmlns="http://www.w3.org/2000/svg" height="60" width="175.74" version="1.1" xmlns:cc="http://creativecommons.org/ns#" xmlns:dc="http://purl.org/dc/elements/1.1/">
 <metadata id="metadata7">
  <rdf:RDF>
   <cc:Work rdf:about="">
    <dc:format>image/svg+xml</dc:format>
    <dc:type rdf:resource="http://purl.org/dc/dcmitype/StillImage"/>
    <dc:title/>
   </cc:Work>
  </rdf:RDF>
 </metadata>
 <g id="layer1" font-size="40px" font-family="Sans" transform="translate(-2.85,10.010295)" font-weight="normal" font-style="normal">
  <flowRoot id="flowRoot2993" style="word-spacing:0px;letter-spacing:0px;" fill="#ffffff" xml:space="preserve" line-height="125%"><flowRegion id="flowRegion2995"><rect id="rect2997" height="531.43" width="1031.4" y="106.65" x="31.429" fill="#FFF"/></flowRegion><flowPara id="flowPara2999"/></flowRoot>
  <g id="flowRoot3001" style="word-spacing:0px;letter-spacing:0px;" line-height="125%" fill="#FFF" transform="translate(-40,-101.84742)">
   <path id="path4690" d="m63.18,109.01c-0.000023,1.7987-0.64602,3.534-1.938,5.206-0.68402,0.86134-1.71,1.5707-3.078,2.128-1.3427,0.53201-2.9387,0.79801-4.788,0.798h-4.028v10.374h-6.498v-26.676h10.526c3.0906,0.00002,5.4973,0.79802,7.22,2.394,1.7226,1.596,2.584,3.5214,2.584,5.776m-13.832,3.192,4.028,0c0.98799,0.00001,1.7607-0.29132,2.318-0.874,0.58265-0.58265,0.87398-1.3426,0.874-2.28-0.000017-0.96265-0.29135-1.748-0.874-2.356-0.58268-0.60798-1.3553-0.91198-2.318-0.912h-4.028v6.422"/>
   <path id="path4692" d="m66.12,127.51,0-26.676,6.498,0,0,26.676-6.498,0"/>
   <path id="path4694" d="m97.621,109.01c-0.000023,1.7987-0.64602,3.534-1.938,5.206-0.68402,0.86134-1.71,1.5707-3.078,2.128-1.3427,0.53201-2.9387,0.79801-4.788,0.798h-4.028v10.374h-6.498v-26.676h10.526c3.0906,0.00002,5.4973,0.79802,7.22,2.394,1.7226,1.596,2.584,3.5214,2.584,5.776m-13.832,3.192,4.028,0c0.98799,0.00001,1.7607-0.29132,2.318-0.874,0.58265-0.58265,0.87398-1.3426,0.874-2.28-0.000016-0.96265-0.29135-1.748-0.874-2.356-0.58268-0.60798-1.3553-0.91198-2.318-0.912h-4.028v6.422"/>
   <path id="path4696" d="m109.6,105.59c-0.81068,0.00002-1.482,0.21535-2.014,0.646-0.50668,0.43068-0.76001,1.0514-0.76,1.862-0.00001,0.81068,0.24065,1.4694,0.722,1.976,0.48132,0.48135,1.102,0.86135,1.862,1.14,0.78532,0.25335,1.6466,0.50668,2.584,0.76,0.96265,0.22801,1.9126,0.51935,2.85,0.874,0.93731,0.32934,1.786,0.74734,2.546,1.254,0.78531,0.50668,1.4186,1.2287,1.9,2.166,0.48131,0.91201,0.72198,2.014,0.722,3.306-0.00002,2.2547-0.92469,4.1927-2.774,5.814-1.824,1.596-4.2434,2.394-7.258,2.394-2.9894,0-5.4087-0.722-7.258-2.166-1.824-1.444-2.736-3.496-2.736-6.156h6.916c0.17732,2.128,1.2666,3.192,3.268,3.192,0.93732,0,1.672-0.24066,2.204-0.722,0.53198-0.50666,0.79798-1.14,0.798-1.9-0.00002-0.75999-0.24068-1.3807-0.722-1.862-0.48135-0.48133-1.1147-0.86133-1.9-1.14-0.76001-0.27866-1.6214-0.53199-2.584-0.76-0.93735-0.25332-1.8747-0.55732-2.812-0.912-0.93734-0.35466-1.7987-0.77266-2.584-1.254-0.76001-0.50666-1.3807-1.216-1.862-2.128-0.48134-0.93732-0.722-2.0393-0.722-3.306-0.000002-2.4826,0.92466-4.4713,2.774-5.966,1.8493-1.4946,4.2053-2.242,7.068-2.242,2.888,0.00002,5.2186,0.65869,6.992,1.976,1.7733,1.292,2.698,3.344,2.774,6.156h-7.068c-0.10135-0.96265-0.41802-1.6973-0.95-2.204-0.50668-0.53198-1.1654-0.79798-1.976-0.798"/>
   <path id="path4698" d="m123.94,116.87,0-5.396,16.72,0,0,5.396-16.72,0"/>
   <path id="path4700" d="m165.5,109.01c-0.00002,1.7987-0.64602,3.534-1.938,5.206-0.68402,0.86134-1.71,1.5707-3.078,2.128-1.3427,0.53201-2.9387,0.79801-4.788,0.798h-4.028v10.374h-6.498v-26.676h10.526c3.0906,0.00002,5.4973,0.79802,7.22,2.394,1.7226,1.596,2.584,3.5214,2.584,5.776m-13.832,3.192,4.028,0c0.98799,0.00001,1.7606-0.29132,2.318-0.874,0.58265-0.58265,0.87399-1.3426,0.874-2.28-0.00001-0.96265-0.29135-1.748-0.874-2.356-0.58268-0.60798-1.3554-0.91198-2.318-0.912h-4.028v6.422"/>
   <path id="path4702" d="m174.94,117.14,0,10.374-6.498,0,0-26.676,10.526,0c3.0906,0.00002,5.4973,0.79802,7.22,2.394,1.7226,1.596,2.584,3.5214,2.584,5.776-0.00002,1.5454-0.46869,3.0527-1.406,4.522-0.93735,1.4693-2.47,2.508-4.598,3.116l6.536,10.868h-7.6l-6.004-10.374h-0.76m0-11.362,0,6.422,4.028,0c0.98799,0.00001,1.7607-0.29132,2.318-0.874,0.58265-0.58265,0.87399-1.3426,0.874-2.28-0.00001-0.96265-0.29135-1.748-0.874-2.356-0.58268-0.60798-1.3553-0.91198-2.318-0.912h-4.028"/>
   <path id="path4704" d="m210.04,119.68c1.292-1.3933,1.938-3.2553,1.938-5.586-0.00003-2.3306-0.64603-4.1926-1.938-5.586-1.2667-1.3933-2.9767-2.09-5.13-2.09-2.128,0.00002-3.838,0.69668-5.13,2.09-1.2667,1.3934-1.9,3.2554-1.9,5.586-0.00001,2.3307,0.63332,4.1927,1.9,5.586,1.292,1.3933,3.002,2.09,5.13,2.09,2.1533,0,3.8633-0.69666,5.13-2.09m-14.82,4.218c-2.6347-2.584-3.952-5.852-3.952-9.804-0.00001-3.952,1.3173-7.2073,3.952-9.766,2.66-2.584,5.9026-3.876,9.728-3.876,3.8506,0.00002,7.0806,1.292,9.69,3.876,2.6346,2.5587,3.952,5.814,3.952,9.766-0.00003,3.952-1.3174,7.22-3.952,9.804-2.6347,2.584-5.8647,3.876-9.69,3.876-3.8254,0-7.068-1.292-9.728-3.876"/>
  </g>
  <g id="flowRoot4912" style="word-spacing:0px;letter-spacing:0px;" line-height="125%" fill="#FFF" transform="translate(-16,-60.808549)">
   <path id="path4667" d="m19.35,104.67,0-12.474,7.02,0,0,1.314-5.382,0,0,4.23,4.248,0,0,1.296-4.248,0,0,5.634-1.638,0"/>
   <path id="path4669" d="m37.228,101.99c0.87599-0.9,1.314-2.088,1.314-3.564-0.000012-1.476-0.43801-2.658-1.314-3.546-0.87601-0.89999-1.998-1.35-3.366-1.35-1.356,0.000011-2.478,0.45001-3.366,1.35-0.876,0.88801-1.314,2.07-1.314,3.546-0.000003,1.476,0.444,2.664,1.332,3.564s2.01,1.35,3.366,1.35,2.472-0.45,3.348-1.35m-3.348,2.808c-1.788,0-3.294-0.6-4.518-1.8-1.224-1.212-1.836-2.736-1.836-4.572-0.000001-1.848,0.612-3.366,1.836-4.554,1.224-1.2,2.73-1.8,4.518-1.8,1.788,0.000013,3.288,0.60001,4.5,1.8,1.224,1.188,1.836,2.706,1.836,4.554-0.000014,1.848-0.61201,3.372-1.836,4.572-1.212,1.2-2.712,1.8-4.5,1.8"/>
   <path id="path4671" d="m43.875,99.524,0,5.148-1.638,0,0-12.474,4.05,0c1.404,0.000013,2.472,0.34201,3.204,1.026,0.74399,0.68401,1.116,1.524,1.116,2.52-0.00001,0.98401-0.27001,1.806-0.81,2.466-0.54001,0.66001-1.35,1.074-2.43,1.242l3.438,5.22h-2.052l-3.276-5.148h-1.602m0-6.012,0,4.716,2.412,0c0.89999,0.000007,1.566-0.20399,1.998-0.612,0.44399-0.41999,0.66599-1.002,0.666-1.746-0.000008-1.572-0.88801-2.358-2.664-2.358h-2.412"/>
   <path id="path4673" d="m59.952,92.198,0,1.296-4.968,0,0,4.248,4.428,0,0,1.278-4.428,0,0,4.356,4.968,0,0,1.296-6.606,0,0-12.474,6.606,0"/>
   <path id="path4675" d="m71.542,92.198-3.852,6.246,3.834,6.228-1.8,0-3.042-4.914-2.862,4.914-1.818,0,3.852-6.246-3.852-6.228,1.818,0,3.042,4.932,2.862-4.932,1.818,0"/>
   <path id="path4677" d="m80.518,95.528c-0.000003,0.45601,0.126,0.83401,0.378,1.134,0.252,0.30001,0.576,0.52201,0.972,0.666,0.396,0.14401,0.834,0.27001,1.314,0.378,0.49199,0.10801,0.97799,0.23401,1.458,0.378,0.49199,0.13201,0.93599,0.30601,1.332,0.522,0.39599,0.21601,0.71999,0.54001,0.972,0.972,0.25199,0.432,0.37799,0.966,0.378,1.602-0.00001,0.972-0.37201,1.818-1.116,2.538-0.74401,0.72-1.752,1.08-3.024,1.08-1.26,0-2.286-0.288-3.078-0.864-0.792-0.588-1.188-1.38-1.188-2.376h1.746c0.048,0.564,0.27,1.02,0.666,1.368,0.408,0.348,1.008,0.522,1.8,0.522,0.79199,0,1.422-0.204,1.89-0.612,0.46799-0.408,0.70199-0.882,0.702-1.422-0.000007-0.552-0.12601-0.972-0.378-1.26-0.25201-0.3-0.57601-0.522-0.972-0.666-0.39601-0.144-0.84001-0.26399-1.332-0.36-0.48-0.10799-0.966-0.23399-1.458-0.378-0.48-0.14399-0.918-0.32399-1.314-0.54-0.396-0.22799-0.72-0.55799-0.972-0.99-0.252-0.44399-0.378-0.98999-0.378-1.638-0.000001-1.056,0.372-1.902,1.116-2.538,0.756-0.64799,1.734-0.97199,2.934-0.972,1.212,0.000013,2.172,0.28201,2.88,0.846,0.71999,0.55201,1.134,1.32,1.242,2.304h-1.818c-0.04801-0.49199-0.28201-0.91199-0.702-1.26-0.40801-0.34799-0.966-0.52199-1.674-0.522-0.696,0.000011-1.266,0.18001-1.71,0.54-0.444,0.34801-0.666,0.86401-0.666,1.548"/>
   <path id="path4679" d="m89.768,104.67,0-12.474,1.638,0,0,12.474-1.638,0"/>
   <path id="path4681" d="m99.69,104.78c-1.716,0-3.186-0.6-4.41-1.8s-1.836-2.718-1.836-4.554c0-1.848,0.612-3.366,1.836-4.554,1.224-1.2,2.73-1.8,4.518-1.8,1.296,0.000013,2.448,0.30601,3.456,0.918,1.02,0.61201,1.77,1.494,2.25,2.646h-1.98c-0.74401-1.404-1.986-2.106-3.726-2.106-1.356,0.000011-2.478,0.45001-3.366,1.35-0.876,0.88801-1.314,2.07-1.314,3.546-0.000003,1.476,0.438,2.664,1.314,3.564,0.888,0.9,1.986,1.35,3.294,1.35,1.32,0,2.376-0.372,3.168-1.116,0.80399-0.744,1.272-1.752,1.404-3.024h-5.148v-1.296h6.876v1.296c-0.16802,1.608-0.83401,2.94-1.998,3.996s-2.61,1.584-4.338,1.584"/>
   <path id="path4683" d="m116.31,92.198,1.638,0,0,12.474-1.638,0-6.588-9.9,0,9.9-1.638,0,0-12.474,1.638,0,6.588,9.9,0-9.9"/>
   <path id="path4685" d="m129.24,104.67-0.972-2.736-5.544,0-0.972,2.736-1.674,0,4.536-12.474,1.8,0,4.518,12.474-1.692,0m-6.048-4.032,4.608,0-2.304-6.444-2.304,6.444"/>
   <path id="path4687" d="m133.08,92.198,1.638,0,0,11.214,4.374,0,0,1.26-6.012,0,0-12.474"/>
  </g>
 </g>
</svg>
